<?xml version="1.0" standalone="no"?>
<!DOCTYPE svg PUBLIC "-//W3C//DTD SVG 20010904//EN"
 "http://www.w3.org/TR/2001/REC-SVG-20010904/DTD/svg10.dtd">
<svg version="1.0" xmlns="http://www.w3.org/2000/svg"
 width="4500.000000pt" height="4528.000000pt" viewBox="0 0 4500.000000 4528.000000"
 preserveAspectRatio="xMidYMid meet">

<g transform="translate(0.000000,4528.000000) scale(0.100000,-0.100000)"
fill="#000000" stroke="none">
<path d="M22645 42094 c-2919 -73 -5648 -741 -8205 -2010 -2742 -1360 -5115
-3341 -6942 -5794 -2249 -3020 -3555 -6597 -3778 -10350 -31 -532 -41 -1428
-20 -1935 121 -2953 890 -5784 2267 -8345 201 -372 488 -869 508 -876 14 -6
288 62 320 79 11 5 89 67 174 136 300 246 292 242 467 250 l121 6 -113 189
c-1296 2156 -2132 4564 -2449 7057 -58 460 -95 865 -127 1419 -20 337 -17
1591 5 1940 50 805 124 1442 247 2150 76 435 210 1076 228 1091 90 77 1339
915 1349 906 1 -2 -12 -45 -28 -97 -64 -199 -201 -691 -268 -962 -230 -942
-378 -1861 -450 -2803 -39 -508 -46 -691 -46 -1330 0 -640 7 -835 46 -1340
218 -2831 1125 -5527 2663 -7920 82 -126 149 -231 150 -233 2 -1 119 23 262
53 1215 260 2661 516 4029 715 383 56 1090 150 1117 150 15 -1 -8 -16 -62 -43
-85 -42 -125 -76 -213 -180 -76 -90 -200 -142 -402 -168 -100 -12 -152 -27
-100 -28 69 -2 319 35 637 93 42 8 123 33 180 57 360 147 517 177 996 186 214
4 302 9 302 17 0 30 -82 145 -143 202 -54 50 -64 63 -50 68 33 10 525 104 783
150 1312 235 2620 345 4085 346 l440 0 68 193 c561 1574 966 2832 1171 3627
60 233 119 500 112 507 -8 8 -467 -189 -941 -405 -544 -247 -1382 -643 -2640
-1247 -478 -230 -924 -444 -990 -475 -66 -32 -201 -97 -300 -145 -99 -48 -220
-107 -270 -130 -49 -24 -171 -82 -270 -130 -99 -48 -223 -108 -275 -132 -52
-25 -176 -85 -276 -133 -99 -49 -230 -112 -290 -140 -60 -28 -163 -78 -229
-110 -207 -102 -250 -134 670 495 1781 1219 3543 2443 4490 3119 379 270 676
485 698 506 11 10 -175 54 -498 119 -1449 290 -4215 661 -8695 1166 -465 52
-1005 113 -1200 135 -195 22 -476 53 -624 70 -148 16 -271 32 -275 36 -3 3 21
3 54 0 68 -7 971 -66 1920 -126 4964 -310 8446 -438 9517 -350 151 12 323 38
361 54 l27 11 -66 114 c-304 525 -1048 1554 -2358 3261 -325 424 -958 1243
-1190 1540 -88 113 -174 225 -191 250 -16 25 -104 141 -195 258 -146 188 -166
209 -173 189 -237 -644 -342 -897 -527 -1263 -368 -733 -739 -1159 -1085
-1249 -244 -63 -533 57 -758 314 -190 218 -314 544 -362 956 -27 230 -19 667
17 969 l11 98 45 -6 c25 -3 46 -7 47 -9 1 -1 -4 -49 -11 -107 -114 -935 49
-1637 457 -1963 91 -73 217 -139 310 -163 486 -125 1091 663 1652 2151 106
279 139 376 134 390 -3 7 -78 106 -168 221 -89 115 -166 215 -172 222 -5 6 -6
12 -1 12 5 0 87 -90 183 -200 96 -110 177 -200 181 -200 6 0 151 440 224 680
97 320 322 1160 310 1160 -2 0 -90 -41 -196 -91 -448 -213 -1089 -494 -1524
-669 l-182 -73 -6 -51 c-16 -121 -88 -332 -168 -489 -37 -74 -107 -150 -162
-177 -49 -23 -268 -40 -541 -40 -228 0 -248 13 -307 207 l-31 101 -96 -34
c-399 -141 -1193 -375 -1626 -479 -970 -233 -1674 -297 -2084 -189 -304 79
-433 250 -401 529 39 348 183 670 448 1005 109 138 478 501 687 677 99 83 317
263 485 399 168 136 336 274 374 306 39 32 73 58 77 58 15 0 63 -71 53 -78 -6
-4 -107 -86 -225 -183 -118 -96 -288 -236 -379 -310 -746 -607 -1074 -955
-1265 -1344 -130 -265 -196 -585 -150 -726 50 -150 230 -245 529 -280 128 -15
512 -6 691 16 720 88 1668 323 2690 668 l160 54 -5 54 c-7 73 -5 204 4 379 8
143 -8 424 -35 600 -29 194 -137 387 -249 445 -18 9 -76 26 -129 36 -207 41
-378 102 -606 215 -151 75 -234 134 -332 237 -149 157 -173 293 -92 524 59
168 177 374 306 533 94 115 350 369 449 444 168 127 335 190 539 202 158 10
357 -26 475 -86 55 -28 504 -430 561 -502 66 -84 77 -150 32 -189 -86 -77 -93
-87 -93 -124 0 -20 14 -67 30 -105 41 -93 41 -165 0 -235 -63 -110 -72 -130
-72 -165 0 -20 7 -50 14 -66 15 -33 178 -194 178 -176 0 27 89 159 147 218 69
71 143 113 211 120 89 10 141 -52 163 -196 15 -97 8 -147 -35 -248 -88 -206
-111 -354 -103 -681 5 -272 1 -311 -57 -543 -42 -165 -51 -218 -38 -218 11 0
373 148 632 258 349 149 961 427 1189 541 95 48 99 51 109 93 77 306 266 1255
297 1493 l7 50 -119 83 -118 83 -7 -48 c-4 -26 -14 -117 -23 -201 -22 -212
-63 -322 -121 -322 -29 0 -41 18 -169 260 -118 223 -150 275 -197 316 -42 37
-130 73 -208 84 -83 12 -90 18 -125 94 -40 87 -91 144 -170 191 -84 50 -154
69 -429 115 -131 23 -247 45 -257 50 -10 6 -19 10 -21 10 -11 0 2 -295 16
-348 42 -165 135 -256 288 -282 113 -20 189 3 317 94 76 54 107 62 154 42 74
-30 123 -136 115 -249 -4 -60 -8 -71 -84 -188 -99 -153 -126 -202 -195 -354
-63 -140 -113 -199 -211 -245 -71 -34 -150 -40 -197 -16 -15 8 -66 68 -113
133 -47 65 -130 168 -184 228 -87 98 -263 327 -443 578 -114 158 -145 276
-139 524 5 226 21 249 159 223 64 -12 72 -12 131 10 118 42 209 37 291 -16
l37 -24 0 29 c0 51 -18 81 -56 97 -38 16 -69 15 -206 -8 -52 -9 -81 -8 -122 1
-54 12 -55 12 -128 -27 -40 -22 -90 -45 -111 -52 -30 -9 -42 -21 -60 -58 -17
-36 -30 -50 -60 -61 -37 -14 -41 -13 -100 17 -34 18 -76 32 -93 32 -51 0 -77
30 -119 137 -64 167 -91 218 -124 242 -43 31 -135 62 -201 68 -93 9 -280 -23
-280 -47 0 -3 44 -31 98 -62 106 -61 142 -100 142 -155 0 -36 -36 -83 -63 -83
-40 0 -77 25 -111 75 -27 39 -52 61 -93 81 -39 20 -68 45 -95 81 -37 51 -67
68 -111 65 -31 -2 -46 -22 -52 -70 -10 -78 -45 -185 -71 -220 -59 -77 -182
-96 -244 -37 -35 34 -54 94 -47 148 6 44 26 69 82 105 87 54 121 102 165 237
18 55 34 80 74 120 78 76 208 132 695 296 l235 79 -129 60 c-1049 496 -1936
747 -2478 700 -269 -23 -443 -95 -576 -237 -120 -127 -172 -272 -173 -478 -3
-344 133 -758 499 -1530 58 -121 107 -227 110 -236 3 -10 -8 -21 -36 -34 -23
-10 -43 -16 -45 -14 -8 7 -197 412 -273 584 -262 589 -368 979 -349 1285 8
138 27 215 80 325 102 209 296 346 576 406 150 33 479 33 690 0 575 -88 1292
-335 2104 -724 l158 -77 127 15 c164 19 480 19 645 0 324 -38 664 -149 943
-308 124 -71 350 -226 468 -320 113 -91 256 -243 285 -301 16 -35 25 -77 31
-145 11 -139 28 -205 65 -264 18 -29 45 -72 60 -96 15 -24 35 -75 44 -113 l16
-68 124 -89 c116 -82 126 -87 132 -67 11 31 73 487 102 741 36 319 79 853 70
864 -5 6 -488 -63 -519 -75 -9 -4 -16 3 -20 20 -17 82 -30 71 123 95 75 12
199 30 275 40 75 10 140 21 145 25 12 13 7 701 -6 841 -49 501 -141 803 -292
956 -90 92 -147 113 -285 106 -106 -5 -187 -28 -310 -89 -328 -164 -792 -561
-1279 -1095 -76 -84 -142 -153 -145 -153 -3 0 -21 13 -40 28 l-33 28 108 120
c150 166 464 483 618 626 711 656 1226 807 1490 435 192 -271 276 -729 276
-1504 0 -228 3 -293 13 -293 6 0 88 7 181 15 908 77 1820 20 2320 -146 398
-133 550 -313 506 -602 -57 -380 -417 -811 -1114 -1334 -195 -146 -569 -398
-796 -537 -80 -49 -147 -90 -149 -92 -2 -2 12 -16 30 -31 362 -301 833 -762
1085 -1058 392 -462 548 -839 439 -1060 -91 -187 -330 -292 -795 -351 -169
-21 -834 -30 -1127 -15 -312 16 -701 48 -1078 89 l-160 17 -3 48 c-2 34 1 47
10 47 7 0 68 -7 135 -15 188 -22 632 -63 898 -81 309 -22 1049 -26 1235 -6
457 50 725 153 801 309 126 260 -245 837 -993 1544 -165 156 -535 485 -561
500 -7 4 -80 -32 -162 -80 -251 -146 -583 -325 -923 -498 -282 -144 -323 -168
-328 -191 -119 -508 -325 -1234 -488 -1724 -42 -124 -76 -230 -76 -236 0 -5
91 -113 203 -239 111 -126 220 -251 242 -279 22 -27 209 -238 415 -469 1757
-1965 3108 -3369 3738 -3885 117 -95 271 -206 276 -198 4 5 54 246 75 363 280
1546 654 6045 1055 12678 14 219 27 402 31 405 4 4 4 -54 0 -128 -31 -679
-134 -5109 -156 -6785 -13 -968 -6 -3698 10 -4200 40 -1205 92 -1949 166
-2339 8 -43 15 -81 15 -83 0 -13 79 9 187 52 704 279 2905 1695 5685 3657 147
103 271 188 275 188 4 0 -8 -15 -28 -33 -21 -17 -59 -52 -86 -77 -27 -25 -81
-72 -118 -105 -38 -33 -80 -71 -94 -84 -14 -13 -57 -51 -95 -85 -38 -33 -81
-72 -95 -85 -14 -12 -57 -51 -95 -85 -38 -33 -80 -70 -92 -81 -45 -40 -168
-150 -186 -166 -32 -29 -160 -143 -187 -168 -14 -12 -57 -51 -96 -85 -74 -66
-159 -141 -215 -192 -19 -17 -163 -146 -320 -285 -2149 -1917 -3060 -2738
-3478 -3138 l-203 -194 43 -19 c319 -143 1009 -271 1868 -347 415 -37 979 -71
1186 -71 109 0 1104 -94 3324 -315 2602 -259 3690 -382 3690 -415 0 -29 -294
-20 -1785 55 -1099 55 -2967 142 -3990 185 -2469 103 -3770 122 -4413 64 l-73
-7 23 -25 c110 -118 696 -526 1398 -972 962 -612 1837 -1145 4285 -2613 2314
-1387 2510 -1507 2455 -1507 -23 0 -136 61 -1410 760 -2561 1406 -3860 2098
-5130 2733 -706 354 -952 472 -1317 633 -469 207 -748 304 -879 304 -77 0 -83
-13 -49 -108 130 -370 385 -903 1456 -3044 l759 -1516 62 -6 c35 -3 151 -8
258 -11 1337 -39 3255 -171 4940 -340 245 -24 589 -54 765 -65 176 -12 430
-30 565 -40 135 -11 260 -20 278 -20 17 0 32 -3 32 -7 0 -5 -34 -26 -77 -47
-200 -103 -410 -315 -493 -499 -11 -23 -20 -63 -20 -89 0 -41 5 -54 37 -89 86
-95 262 -145 611 -174 487 -40 767 -97 1215 -245 269 -90 360 -110 492 -110
122 0 205 22 423 114 210 88 302 118 465 151 181 36 382 49 568 36 175 -13
260 -25 544 -81 461 -91 675 -100 912 -39 119 30 333 140 333 170 0 15 -85 58
-175 88 -49 16 -151 39 -225 51 -336 53 -464 85 -620 157 -94 42 -85 41 283
-49 159 -38 290 -68 292 -67 11 12 240 385 339 552 382 649 764 1416 1066
2142 1067 2567 1484 5443 1199 8265 -68 680 -158 1234 -334 2060 -69 322 -254
1011 -364 1350 -22 68 -39 126 -37 127 12 13 1124 -730 1464 -978 26 -19 59
-153 151 -619 187 -943 281 -1688 343 -2730 18 -291 18 -1547 0 -1845 -76
-1301 -239 -2389 -534 -3560 -430 -1711 -1128 -3392 -2032 -4895 -48 -78 -84
-145 -82 -147 3 -3 148 -36 322 -74 175 -38 423 -93 551 -122 l234 -53 108
190 c1882 3314 2731 7089 2456 10921 -116 1617 -437 3221 -947 4740 -1134
3378 -3194 6386 -5949 8686 -1847 1543 -3983 2736 -6254 3495 -1735 579 -3472
899 -5340 984 -234 10 -1033 19 -1250 14z m-1249 -1405 c358 -63 633 -336 699
-694 13 -67 16 -125 13 -225 -4 -118 -9 -147 -37 -230 -49 -146 -102 -231
-211 -340 -137 -138 -279 -212 -465 -245 -459 -80 -870 172 -995 609 -148 519
161 1026 683 1121 90 16 234 18 313 4z m-1827 -351 c110 -21 197 -75 250 -154
77 -117 93 -283 37 -393 -36 -70 -115 -153 -188 -198 -32 -20 -58 -39 -58 -43
0 -12 598 -589 632 -610 20 -12 51 -20 79 -20 43 0 47 -2 52 -27 3 -16 4 -29
3 -30 -1 -2 -116 -28 -256 -59 l-253 -56 -336 335 c-326 325 -337 335 -369
330 -31 -5 -33 -7 -26 -37 63 -300 118 -529 136 -565 36 -71 64 -86 158 -84
76 1 78 1 85 -24 3 -14 5 -27 3 -28 -2 -2 -185 -43 -408 -92 -351 -77 -406
-87 -412 -74 -12 28 -8 51 7 51 29 0 112 49 131 77 37 56 27 125 -110 748 -75
342 -136 598 -149 624 -34 69 -64 86 -152 86 -70 0 -74 1 -80 24 -3 13 -2 27
2 31 10 10 774 177 868 190 144 20 244 20 354 -2z m4302 -183 c53 -176 154
-275 326 -319 34 -9 78 -16 99 -17 22 0 48 -4 59 -9 17 -7 15 -9 -11 -9 -48
-1 -177 -37 -238 -66 -65 -30 -148 -103 -183 -158 -38 -60 -63 -143 -70 -230
-4 -48 -9 -73 -14 -65 -5 7 -9 24 -9 38 0 91 -69 249 -141 325 -80 85 -237
152 -364 156 -29 1 -29 1 -5 9 14 4 57 12 97 19 222 34 363 167 394 372 23
155 21 151 31 84 4 -33 17 -91 29 -130z m-5989 -303 c76 -37 120 -82 157 -162
22 -47 26 -69 26 -150 0 -78 -4 -103 -23 -141 -32 -66 -85 -124 -163 -178
l-68 -48 132 -1 c106 0 145 -4 199 -21 181 -58 273 -193 273 -402 0 -90 -2
-99 -38 -171 -54 -110 -161 -208 -299 -277 -113 -56 -937 -337 -949 -324 -4 5
-9 17 -13 28 -5 16 4 25 49 49 77 40 100 75 99 151 0 51 -29 146 -187 615
-104 305 -198 578 -211 605 -27 58 -68 103 -103 111 -26 7 -106 0 -135 -11
-13 -5 -20 0 -28 20 -6 15 -9 29 -7 31 12 12 825 280 895 295 63 13 120 18
207 16 114 -2 124 -4 187 -35z m10159 -61 c22 -23 29 -39 29 -69 0 -76 -17
-108 -266 -492 -40 -63 -74 -118 -74 -122 0 -4 26 4 58 17 85 35 170 48 274
43 110 -5 173 -31 222 -92 28 -35 31 -44 31 -109 0 -63 -5 -80 -35 -136 -64
-118 -204 -240 -349 -301 -178 -76 -387 -102 -479 -60 -23 10 -45 26 -48 35
-6 14 -8 14 -23 1 -41 -37 -127 -26 -158 20 -39 59 8 152 319 632 191 294 295
465 338 553 51 104 55 109 97 109 25 0 43 -8 64 -29z m-2111 -16 c110 -15 170
-72 151 -143 -11 -39 -43 -82 -62 -82 -17 0 -52 21 -82 49 -25 22 -36 26 -85
24 -94 -3 -247 -67 -272 -113 -18 -33 1 -51 127 -125 65 -39 137 -88 160 -111
37 -35 43 -46 43 -81 0 -81 -62 -179 -139 -218 -121 -61 -339 -100 -427 -76
-49 13 -100 46 -127 83 -26 34 -16 73 22 93 26 13 33 13 68 -1 31 -13 63 -15
173 -11 174 6 240 29 240 83 0 28 -37 59 -153 128 -103 60 -139 93 -161 148
-54 128 20 221 248 313 87 35 172 55 211 49 11 -1 40 -5 65 -9z m640 -159 c78
-37 79 -35 -110 -371 -65 -115 -122 -226 -125 -246 -9 -50 10 -116 41 -135 58
-38 196 10 311 108 126 107 195 209 303 445 65 142 85 165 133 156 127 -24
129 -89 13 -332 -102 -214 -120 -264 -145 -411 -24 -140 -51 -207 -88 -221
-32 -12 -94 4 -118 31 -18 20 -18 25 -3 128 9 59 15 109 13 111 -2 2 -41 -26
-87 -63 -212 -168 -364 -185 -486 -53 -58 64 -74 107 -75 197 0 56 6 91 25
140 38 98 256 502 285 528 27 25 38 24 113 -12z m-10234 -436 c71 -156 99
-227 91 -232 -26 -17 -44 -6 -85 50 -96 133 -222 187 -377 162 -127 -20 -309
-90 -374 -145 -30 -26 -33 -33 -29 -69 5 -35 227 -546 248 -569 14 -15 124 46
172 95 75 77 95 181 63 328 -8 36 -14 68 -15 71 0 3 11 11 24 17 23 10 26 5
199 -374 l175 -385 -24 -11 c-13 -6 -26 -9 -27 -7 -2 2 -22 32 -45 65 -109
164 -234 207 -409 143 -32 -12 -61 -25 -66 -28 -9 -9 234 -543 269 -588 26
-34 29 -35 79 -31 101 8 302 124 400 230 93 101 145 246 145 408 0 66 1 68 28
75 15 4 29 6 32 6 8 0 128 -506 122 -512 -6 -6 -1187 -546 -1279 -585 -31 -14
-33 -13 -47 14 -14 28 -14 29 22 48 97 51 132 111 112 192 -16 66 -495 1117
-534 1172 -55 78 -125 96 -223 55 -30 -13 -32 -12 -43 16 -7 16 -11 31 -9 33
16 12 1286 585 1293 583 5 -2 55 -104 112 -227z m12792 -284 c73 -34 112 -75
112 -117 0 -58 -53 -124 -89 -112 -9 3 -37 28 -62 55 l-45 48 -85 0 c-88 0
-187 -20 -226 -46 -45 -29 -30 -54 97 -174 128 -120 150 -149 150 -203 0 -64
-83 -165 -157 -191 -111 -39 -310 -44 -425 -9 -85 25 -164 117 -144 168 3 8
21 22 40 31 32 16 35 16 63 -4 47 -33 132 -53 249 -59 126 -6 159 -1 174 27
17 31 -8 67 -115 165 -125 115 -156 175 -136 264 5 24 20 54 32 67 64 68 257
125 414 121 75 -2 100 -7 153 -31z m563 -257 c27 -17 51 -39 54 -50 11 -33
-22 -80 -199 -287 -96 -111 -179 -217 -185 -234 -20 -57 -14 -116 15 -145 24
-24 30 -25 102 -21 190 12 377 142 563 392 147 198 136 186 172 186 41 0 95
-33 107 -66 12 -30 0 -83 -29 -130 -10 -17 -67 -96 -126 -175 -109 -145 -151
-220 -205 -364 -36 -97 -61 -138 -96 -161 -23 -16 -30 -16 -67 -3 -22 8 -49
26 -59 40 l-20 26 36 103 c20 57 34 105 33 107 -2 2 -55 -21 -118 -51 -215
-102 -327 -103 -425 -2 -109 112 -113 266 -12 413 51 74 322 411 350 436 29
24 55 21 109 -14z m-15096 -929 c-7 -492 -11 -897 -9 -898 3 -5 253 141 329
192 120 80 205 189 239 305 22 76 21 235 -3 334 l-18 78 28 15 29 15 19 -43
c10 -24 67 -150 126 -281 58 -131 105 -240 103 -242 -15 -12 -1221 -715 -1228
-715 -5 0 -12 10 -15 23 -3 12 1 427 9 922 8 495 13 901 11 903 -2 2 -69 -36
-151 -85 -179 -107 -260 -180 -305 -277 -40 -86 -49 -192 -25 -316 15 -79 15
-86 -1 -97 -9 -7 -22 -13 -28 -13 -14 0 -230 458 -221 468 4 4 254 151 554
328 522 306 548 320 558 300 9 -16 9 -246 -1 -916z m16582 858 c66 -69 84 -40
-319 -505 -387 -446 -443 -514 -476 -579 -47 -92 -115 -144 -165 -125 -36 14
-67 59 -67 98 0 71 10 84 460 598 182 209 346 403 364 430 46 71 99 115 139
115 24 0 42 -9 64 -32z m435 -464 c24 -22 30 -59 17 -106 -8 -32 -35 -66 -120
-153 -60 -61 -109 -115 -109 -118 0 -4 86 -34 192 -68 213 -69 256 -94 244
-142 -8 -35 -48 -60 -94 -59 -20 0 -131 28 -247 62 -115 34 -218 65 -228 67
-13 4 -40 -17 -94 -73 -107 -112 -164 -195 -170 -248 -7 -55 8 -81 60 -108 83
-44 242 -22 422 57 32 15 65 23 76 20 24 -8 41 -38 33 -59 -16 -41 -239 -179
-319 -196 -27 -6 -87 -12 -132 -12 -75 -2 -88 1 -157 35 -88 44 -140 99 -161
171 -19 65 -19 92 3 163 23 74 78 155 172 255 l71 77 -34 31 c-76 66 -82 132
-15 166 33 17 33 17 115 -27 l83 -44 101 100 c55 55 111 120 124 145 24 46 58
84 85 92 18 6 59 -8 82 -28z m833 -940 c22 -9 64 -19 92 -23 70 -9 130 -52
162 -116 22 -43 26 -63 26 -140 0 -80 -4 -97 -33 -159 -87 -185 -333 -320
-608 -333 -133 -7 -213 13 -309 75 -127 82 -188 189 -166 293 50 232 361 415
711 418 54 0 99 -5 125 -15z m-19917 -164 c75 -40 150 -118 189 -198 25 -51
28 -68 28 -152 -1 -106 -17 -160 -80 -265 -20 -32 -34 -60 -32 -61 2 -2 183
-58 403 -124 242 -73 416 -120 442 -120 24 0 57 8 74 18 29 17 30 16 48 -6 19
-23 19 -23 -13 -51 -77 -66 -375 -301 -382 -301 -5 0 -201 63 -437 140 -236
77 -435 140 -442 140 -8 0 -23 -8 -35 -17 -21 -18 -20 -19 155 -236 103 -128
192 -229 216 -245 54 -35 101 -34 173 7 l56 32 19 -23 c18 -22 18 -24 2 -39
-9 -9 -155 -127 -323 -262 l-306 -245 -21 20 -20 21 43 53 c54 66 64 108 39
172 -12 31 -136 195 -382 502 -201 250 -381 472 -401 494 -20 21 -55 47 -78
58 -37 16 -49 17 -85 8 -24 -6 -59 -22 -79 -35 -35 -23 -38 -23 -53 -6 -9 10
-16 23 -16 29 0 15 629 519 729 584 166 109 283 149 416 145 80 -3 97 -7 153
-37z m21573 -1140 c77 -15 131 -44 209 -114 37 -33 89 -78 114 -99 39 -32 46
-44 46 -73 0 -52 -13 -68 -91 -119 -147 -95 -446 -309 -489 -350 -92 -86 -135
-96 -193 -45 -57 50 -55 64 20 141 76 79 80 74 -72 83 -207 13 -285 66 -302
205 -3 28 0 64 7 85 38 117 259 249 477 286 70 11 212 12 274 0z m-22899 -545
c401 -168 763 -317 803 -330 89 -30 130 -31 174 -4 32 19 34 19 53 3 18 -17
11 -26 -259 -296 -153 -153 -280 -278 -283 -278 -3 0 -11 9 -18 21 -11 18 -9
25 18 59 17 21 37 54 45 74 14 32 14 40 0 72 -13 32 -28 42 -157 103 -79 37
-150 70 -159 73 -11 5 -74 -52 -213 -191 l-197 -198 36 -89 c79 -191 118 -244
182 -244 39 0 62 10 116 53 38 30 39 30 58 11 19 -19 17 -22 -154 -192 -95
-95 -178 -172 -184 -172 -6 0 -16 7 -23 15 -10 12 -8 23 9 58 25 52 26 95 5
167 -9 29 -157 389 -330 798 l-314 746 22 23 c12 13 26 23 31 23 5 0 338 -137
739 -305z m23647 -47 c65 -70 65 -112 2 -153 -22 -13 -129 -73 -239 -133 -244
-133 -255 -141 -281 -195 -30 -62 -27 -90 13 -125 98 -86 382 -60 593 53 45
24 136 80 203 125 67 44 130 80 140 80 28 0 88 -56 95 -90 14 -64 -38 -116
-245 -245 -131 -81 -159 -104 -285 -232 -154 -157 -186 -177 -233 -148 -82 52
-81 90 3 188 36 42 65 80 65 85 0 4 -26 5 -57 1 -88 -11 -236 -10 -292 2 -84
18 -138 60 -173 134 -27 58 -30 74 -26 138 5 92 34 153 108 219 68 62 514 326
552 327 18 1 37 -10 57 -31z m-8943 -199 c60 -402 269 -606 651 -636 46 -3 81
-8 79 -11 -3 -2 -41 -10 -86 -18 -407 -71 -606 -277 -638 -664 l-7 -85 -18
109 c-61 367 -248 565 -595 632 -41 8 -89 14 -108 14 -63 0 -35 17 39 23 354
32 576 209 638 509 10 51 19 124 19 162 0 38 3 67 6 63 4 -3 13 -47 20 -98z
m2294 -70 c43 -59 117 -98 195 -100 25 0 27 -2 10 -9 -11 -4 -46 -15 -79 -25
-101 -29 -166 -115 -166 -219 0 -50 -16 -37 -23 19 -8 55 -36 111 -74 147 -33
32 -108 67 -143 68 -14 0 -32 5 -40 10 -11 7 -8 10 16 10 57 0 137 33 176 72
38 38 67 112 69 172 0 21 6 7 19 -42 11 -40 29 -86 40 -103z m-18445 -177 l23
-19 -30 -46 c-37 -57 -47 -121 -25 -163 26 -48 90 -104 652 -559 297 -241 544
-441 548 -445 5 -4 -2 -19 -15 -34 l-23 -26 -760 -6 c-418 -4 -804 -9 -858
-13 l-99 -6 406 -330 c223 -181 425 -340 448 -352 73 -40 129 -28 207 46 l34
32 23 -23 22 -23 -115 -140 c-63 -77 -142 -173 -175 -213 l-60 -74 -24 23
c-21 19 -22 25 -10 38 28 32 56 101 56 137 0 22 -9 52 -22 72 -13 18 -238 209
-501 423 l-478 389 -103 0 c-82 0 -109 -4 -141 -20 -48 -24 -58 -25 -77 -2
-15 16 -3 32 145 215 l161 197 345 1 c190 1 500 5 688 8 l343 6 -320 260
c-178 145 -342 270 -370 283 -64 30 -95 24 -166 -34 -29 -24 -58 -44 -62 -44
-5 0 -16 8 -25 18 -14 16 -3 32 156 229 95 117 174 212 175 213 2 0 14 -8 27
-18z m25890 -567 c156 -46 280 -128 322 -215 l20 -39 289 145 c325 163 332
165 379 96 31 -45 32 -74 3 -105 -13 -14 -189 -110 -393 -214 -378 -193 -486
-258 -637 -381 -111 -91 -156 -120 -196 -128 -28 -6 -37 -2 -72 34 -49 48 -51
78 -10 117 17 16 30 34 30 40 0 6 -42 24 -92 40 -271 84 -404 223 -368 382 23
106 140 197 312 243 106 29 288 23 413 -15z m-5156 -555 c86 -341 283 -503
651 -538 l85 -8 -100 -18 c-214 -40 -351 -102 -461 -211 -114 -112 -172 -255
-190 -465 l-8 -85 -16 100 c-36 214 -94 340 -209 455 -114 113 -276 186 -453
206 -75 8 -111 23 -56 24 58 0 226 35 300 63 196 71 328 217 383 422 8 33 18
101 21 150 7 119 15 135 26 50 4 -38 17 -104 27 -145z m5505 -313 c14 -10 35
-11 84 -5 89 11 254 -6 343 -37 121 -41 196 -99 256 -202 40 -68 40 -154 0
-206 -116 -153 -344 -95 -610 153 l-88 83 -40 -19 c-54 -24 -79 -57 -79 -106
0 -57 26 -104 91 -171 55 -55 125 -95 288 -163 95 -40 115 -79 59 -114 -47
-28 -105 -25 -197 10 -220 85 -422 316 -421 482 1 82 59 164 146 206 21 9 33
21 30 29 -19 50 88 96 138 60z m-27512 -170 c15 -12 15 -17 -3 -70 -25 -73
-15 -118 38 -169 21 -20 203 -142 404 -271 202 -129 393 -254 425 -277 127
-94 208 -211 235 -337 23 -113 -3 -269 -68 -398 -81 -161 -237 -336 -350 -393
-108 -55 -194 -63 -319 -32 -115 29 -187 69 -604 336 -419 269 -422 271 -477
280 -50 8 -93 -13 -145 -68 -34 -37 -38 -39 -62 -26 l-25 13 222 347 c123 191
225 350 229 353 3 3 17 1 31 -6 l25 -11 -29 -62 c-52 -110 -35 -162 84 -243
157 -108 766 -492 832 -526 130 -65 245 -84 319 -53 84 35 181 160 218 279 49
163 -8 311 -167 436 -64 51 -754 495 -821 529 -21 11 -54 23 -72 27 -46 10
-114 -26 -161 -85 -37 -47 -38 -47 -61 -30 -15 11 -20 22 -15 31 53 93 282
439 289 439 6 0 18 -6 28 -13z m25148 -815 c43 -97 131 -156 252 -169 68 -7
62 -13 -32 -32 -148 -30 -250 -150 -250 -293 0 -53 -16 -40 -24 19 -9 68 -56
162 -101 202 -47 41 -115 71 -178 78 -53 7 -74 23 -29 23 48 0 155 37 199 69
51 37 99 132 109 216 l8 60 13 -63 c7 -35 22 -84 33 -110z m-5029 -947 c73
-241 226 -376 475 -420 48 -8 105 -15 128 -16 39 -1 40 -1 11 -9 -16 -5 -79
-20 -138 -33 -150 -35 -244 -84 -332 -172 -107 -106 -152 -213 -173 -410 l-8
-80 -8 55 c-35 247 -137 429 -295 524 -72 44 -216 93 -301 102 -94 10 -102 20
-23 27 97 9 216 41 301 82 92 44 186 135 231 223 35 69 71 205 71 268 0 23 3
57 7 75 6 29 9 21 20 -56 7 -49 22 -121 34 -160z m8939 205 c181 -51 276 -123
344 -258 20 -39 40 -73 46 -77 17 -10 50 -82 50 -108 0 -36 -36 -75 -78 -87
-259 -70 -590 -169 -637 -192 -57 -27 -115 -35 -150 -22 -21 8 -55 76 -55 109
0 22 11 31 87 67 l87 41 -30 13 c-235 104 -274 128 -308 197 -30 59 -32 84
-10 157 28 93 92 137 261 174 96 22 292 15 393 -14z m-28869 -696 c118 -85
220 -161 228 -169 11 -11 -37 -113 -310 -653 l-323 -640 -28 14 c-33 17 -32
11 -13 64 8 23 15 65 15 93 0 90 -20 103 -641 416 -600 301 -611 306 -684 261
-19 -12 -49 -42 -66 -66 -16 -24 -32 -44 -35 -44 -5 0 -45 20 -52 25 -3 3 368
744 386 773 13 19 65 -6 58 -27 -3 -9 -14 -41 -25 -71 -11 -30 -20 -74 -21
-98 0 -79 25 -95 642 -406 597 -300 617 -308 671 -266 37 29 121 204 147 304
49 192 7 345 -148 531 -48 58 -51 66 -41 89 7 14 15 26 19 26 4 0 103 -70 221
-156z m29301 -211 c183 -64 349 -187 407 -305 17 -34 31 -72 31 -85 0 -18 4
-23 18 -19 9 3 80 17 157 31 77 14 210 42 296 62 98 22 166 33 183 29 57 -14
88 -123 46 -161 -14 -12 -149 -46 -442 -111 -438 -96 -528 -122 -713 -206
-186 -84 -237 -94 -272 -55 -59 64 -58 106 3 148 25 17 42 34 37 38 -4 4 -54
37 -109 74 -158 104 -237 203 -251 314 -10 88 31 170 109 219 113 72 336 83
500 27z m-5611 -1016 c69 -378 237 -629 514 -767 140 -70 348 -120 503 -120
31 0 64 -5 72 -10 12 -7 8 -10 -15 -10 -57 -1 -273 -49 -378 -84 -177 -59
-300 -128 -405 -230 -183 -174 -273 -396 -298 -736 l-7 -95 -18 122 c-67 462
-263 752 -610 905 -105 47 -275 91 -412 108 -54 7 -96 14 -95 15 2 2 59 11
128 20 637 82 930 384 976 1005 l8 105 9 -60 c4 -33 17 -108 28 -168z m-2575
-1576 c35 -92 93 -161 169 -200 51 -26 148 -51 199 -51 55 0 40 -9 -46 -27
-141 -29 -251 -100 -299 -195 -30 -58 -49 -133 -49 -192 0 -66 -12 -50 -27 36
-15 89 -61 183 -116 238 -49 50 -137 95 -216 111 -110 22 -110 21 -25 35 227
37 333 149 360 379 l7 60 13 -74 c7 -41 21 -95 30 -120z m5094 -1724 c50 -132
162 -215 318 -236 74 -10 107 -21 61 -21 -13 0 -58 -9 -99 -21 -195 -54 -289
-164 -309 -359 -8 -78 -9 -77 -31 35 -37 184 -152 295 -348 335 -84 17 -86 18
-47 25 115 19 149 29 204 56 112 56 171 149 192 303 l13 91 12 -75 c6 -41 22
-101 34 -133z m1780 -2122 c67 -205 189 -362 345 -442 126 -64 209 -86 430
-109 l60 -7 -127 -23 c-334 -62 -544 -196 -653 -416 -57 -117 -84 -222 -92
-363 -7 -121 -11 -117 -37 46 -50 308 -199 524 -442 644 -87 42 -194 72 -334
94 l-105 17 121 17 c257 36 409 101 540 231 131 131 191 276 216 521 l12 120
21 -130 c12 -71 32 -161 45 -200z m-4751 -605 c35 -135 113 -267 194 -332 97
-76 187 -110 353 -131 l99 -13 -75 -13 c-305 -53 -477 -183 -554 -417 -9 -29
-23 -98 -29 -155 l-13 -104 -8 65 c-36 284 -179 482 -409 565 -57 21 -96 30
-222 51 -36 6 -29 8 70 25 360 61 518 228 551 584 l7 80 13 -80 c6 -44 17
-100 23 -125z m-22765 -1522 c22 -220 120 -427 248 -525 110 -86 222 -126 408
-147 l105 -12 -121 -23 c-281 -52 -462 -171 -555 -364 -42 -88 -66 -180 -77
-307 l-7 -85 -18 107 c-34 208 -93 334 -207 448 -112 113 -274 186 -452 206
-93 10 -100 20 -17 28 251 25 452 128 555 283 67 101 114 265 114 399 0 81 15
76 24 -8z m27716 -863 c74 -463 287 -750 649 -871 95 -32 231 -57 386 -72 l80
-7 -109 -18 c-314 -52 -542 -150 -703 -300 -174 -163 -269 -383 -295 -688 -7
-76 -13 -137 -14 -136 -1 1 -9 53 -18 115 -86 591 -395 913 -954 997 -59 9
-123 19 -142 22 -26 4 0 10 100 23 529 69 825 290 935 701 22 82 33 158 52
344 4 41 8 58 11 40 1 -16 12 -84 22 -150z m-25685 -1458 c45 -207 165 -330
360 -372 39 -8 90 -15 115 -16 42 -1 43 -2 15 -9 -16 -5 -64 -16 -105 -25
-159 -36 -283 -122 -340 -239 -28 -57 -57 -177 -61 -251 -1 -17 -7 2 -15 44
-38 211 -119 331 -274 405 -38 19 -100 39 -137 45 -124 22 -124 22 -16 41 236
41 369 160 409 367 8 41 14 93 15 116 l1 42 8 -35 c4 -19 16 -70 25 -113z
m-505 -2168 c66 -220 203 -369 398 -433 95 -31 178 -46 254 -46 32 0 58 -4 58
-8 0 -4 -39 -14 -87 -21 -102 -14 -241 -58 -327 -104 -79 -41 -202 -163 -243
-242 -45 -86 -73 -195 -80 -307 -3 -54 -9 -98 -13 -98 -4 0 -10 30 -14 68 -12
132 -65 287 -131 386 -45 68 -137 154 -207 194 -75 43 -217 88 -328 105 -104
15 -105 14 54 37 373 55 571 269 602 651 l8 94 17 -101 c9 -56 26 -135 39
-175z m23696 -129 c19 -110 72 -264 115 -337 19 -32 72 -96 119 -143 66 -66
103 -94 164 -123 101 -50 245 -86 368 -94 54 -3 95 -9 93 -13 -2 -4 -30 -10
-62 -14 -32 -4 -102 -18 -157 -32 -314 -79 -503 -236 -592 -494 -26 -75 -54
-236 -54 -314 0 -69 -8 -54 -21 40 -64 473 -317 729 -789 797 -103 15 -100 18
41 36 356 46 591 215 684 493 27 84 54 239 56 328 l1 55 9 -50 c5 -27 16 -88
25 -135z m-20925 -1055 c52 -111 158 -179 296 -192 35 -3 60 -9 56 -13 -4 -3
-37 -12 -73 -19 -121 -24 -218 -85 -266 -167 -31 -53 -54 -134 -54 -193 0 -60
-8 -47 -27 40 -27 130 -88 221 -183 273 -58 32 -139 56 -187 56 -18 0 -33 5
-33 10 0 6 13 10 30 10 93 0 202 42 269 105 59 55 88 118 103 225 l12 79 17
-82 c9 -45 27 -104 40 -132z"/>
<path d="M21112 40609 c-146 -24 -249 -135 -297 -319 -35 -134 -35 -429 1
-639 75 -441 279 -675 541 -621 157 33 252 136 300 327 28 107 25 466 -5 632
-80 448 -269 665 -540 620z"/>
<path d="M19093 40224 c-79 -19 -113 -50 -113 -101 0 -40 124 -620 134 -631
11 -10 155 29 216 59 108 55 154 135 153 269 0 100 -22 191 -66 273 -37 71
-85 113 -151 132 -60 18 -92 18 -173 -1z"/>
<path d="M17322 39737 c-18 -6 -47 -23 -64 -39 -27 -25 -30 -33 -24 -68 9 -60
181 -563 194 -568 20 -6 158 65 202 104 24 22 49 53 57 71 29 70 11 210 -43
331 -59 135 -119 183 -225 181 -35 -1 -79 -6 -97 -12z"/>
<path d="M17595 39033 c-11 -2 -50 -13 -87 -24 l-67 -21 104 -303 c114 -333
124 -357 161 -381 79 -53 283 55 314 166 32 114 -35 359 -132 482 -45 57 -117
88 -202 87 -39 -1 -80 -3 -91 -6z"/>
<path d="M27880 39015 c-36 -8 -113 -31 -171 -52 l-107 -37 -70 -106 c-69
-102 -130 -216 -121 -223 11 -8 271 13 324 27 155 41 298 143 366 261 56 97
33 136 -83 141 -41 2 -102 -3 -138 -11z"/>
<path d="M32171 37000 c-102 -22 -215 -69 -280 -117 -52 -40 -91 -109 -91
-162 0 -40 5 -49 49 -92 57 -55 122 -79 211 -79 126 0 282 65 385 161 69 65
80 88 89 184 l5 60 -39 -3 c-27 -3 -56 4 -97 23 -65 30 -158 40 -232 25z"/>
<path d="M11998 36786 c-93 -25 -198 -116 -198 -171 0 -41 15 -63 233 -335 99
-124 182 -227 183 -229 6 -7 55 30 114 88 78 77 110 143 110 232 0 58 -5 77
-40 148 -52 103 -153 210 -231 245 -71 32 -114 37 -171 22z"/>
<path d="M33802 35691 c-103 -26 -211 -82 -261 -136 -47 -51 -50 -66 -19 -95
71 -66 366 -66 539 -1 57 22 151 90 175 126 20 31 10 47 -50 77 -99 51 -249
62 -384 29z"/>
<path d="M10725 35092 c3 -10 59 -142 123 -294 l117 -278 170 170 c93 93 167
171 165 173 -3 2 -135 58 -293 124 -200 84 -287 116 -282 105z"/>
<path d="M35295 34116 c-207 -52 -259 -208 -97 -290 84 -43 191 -70 278 -70
73 -1 87 2 155 36 116 58 219 127 219 148 0 27 -74 83 -160 124 -128 60 -282
80 -395 52z"/>
<path d="M36176 33222 l-30 -7 69 -62 c116 -105 222 -147 286 -113 41 22 11
96 -54 134 -68 39 -203 63 -271 48z"/>
<path d="M37193 31519 c-58 -11 -124 -42 -148 -68 -18 -20 -18 -25 -4 -49 27
-48 95 -90 209 -126 203 -66 340 -69 467 -12 69 32 71 57 8 120 -111 111 -350
171 -532 135z"/>
<path d="M37693 30620 c-129 -27 -184 -102 -138 -189 24 -47 108 -115 200
-161 132 -67 206 -67 423 2 52 16 92 34 92 42 0 23 -57 101 -105 144 -136 120
-340 190 -472 162z"/>
<path d="M19580 32590 c-220 -8 -608 -35 -662 -46 -24 -5 -28 -11 -28 -37 0
-51 -29 -427 -46 -602 -22 -236 -59 -538 -100 -819 -20 -136 -32 -251 -27
-256 4 -4 69 -51 143 -105 199 -145 446 -336 698 -538 l222 -179 152 94 c631
387 1113 751 1443 1089 216 221 344 403 414 584 29 76 35 106 39 196 4 90 2
112 -15 150 -93 211 -482 363 -1103 433 -307 35 -759 49 -1130 36z"/>
<path d="M18685 30697 c-77 -446 -160 -873 -241 -1231 -24 -110 -44 -201 -44
-204 0 -4 348 175 595 306 180 95 475 259 608 337 l88 52 -238 190 c-239 191
-428 336 -645 496 l-117 87 -6 -33z"/>
<path d="M22882 18758 c-148 -255 -442 -763 -640 -1108 -264 -459 -365 -635
-384 -670 -11 -19 -41 -71 -66 -115 -25 -44 -64 -111 -87 -150 -23 -38 -53
-90 -67 -115 -14 -25 -42 -74 -63 -110 -21 -36 -49 -85 -63 -110 -33 -58 -51
-91 -97 -170 -40 -69 -81 -142 -99 -175 -6 -11 -13 -22 -16 -25 -3 -3 -10 -14
-16 -25 -18 -33 -59 -106 -99 -175 -40 -69 -81 -142 -99 -175 -6 -11 -13 -22
-16 -25 -3 -3 -10 -14 -16 -25 -6 -11 -23 -41 -37 -67 -15 -27 -39 -69 -54
-95 -14 -27 -31 -57 -37 -68 -6 -11 -13 -22 -16 -25 -3 -3 -10 -14 -16 -25
-15 -27 -54 -97 -98 -173 -20 -35 -36 -68 -36 -73 0 -5 -4 -9 -10 -9 -5 0 -10
-5 -10 -10 0 -6 -11 -28 -25 -50 -14 -22 -25 -41 -25 -44 0 -2 177 -7 393 -11
215 -4 396 -9 400 -12 14 -8 -42 -61 -120 -114 -88 -60 -103 -80 -103 -142 0
-61 33 -126 101 -201 126 -138 304 -239 584 -333 l100 -33 -85 5 c-98 7 -327
30 -830 86 -354 39 -453 47 -840 70 -363 21 -407 15 -1275 -171 -726 -155
-1695 -346 -2215 -435 -222 -38 -1286 -247 -1352 -265 -58 -17 -96 -55 -112
-113 -8 -29 -54 -286 -101 -572 -66 -402 -195 -1116 -261 -1446 -3 -15 6 -78
21 -140 83 -368 98 -439 93 -444 -3 -3 -47 6 -99 20 -385 102 -860 183 -1209
205 -384 26 -763 -27 -1054 -144 -229 -93 -513 -261 -716 -422 -137 -108 -414
-394 -520 -534 -126 -169 -155 -231 -154 -335 0 -96 21 -146 112 -282 277
-412 620 -677 992 -768 56 -13 147 -29 203 -36 138 -16 494 -6 722 21 99 11
245 21 325 21 261 2 294 15 366 151 85 159 187 230 389 268 273 52 307 64 464
167 234 152 322 168 621 109 69 -13 159 -27 200 -31 133 -12 259 24 347 100
l41 35 70 -10 c77 -11 595 -30 822 -30 197 0 203 -4 239 -192 73 -376 34 -828
-100 -1164 -98 -248 -306 -568 -499 -767 -107 -111 -199 -184 -332 -262 -202
-120 -369 -170 -618 -186 -91 -6 -194 -17 -230 -25 -97 -22 -186 -66 -210
-106 -37 -62 -18 -151 42 -188 31 -20 43 -21 213 -17 196 6 288 19 493 72 505
132 854 354 1212 770 133 155 203 263 300 460 120 244 167 406 206 705 20 150
25 537 11 740 -10 136 -5 150 64 159 24 3 206 1 404 -6 353 -11 2165 -38 2582
-38 156 0 215 -3 224 -12 15 -15 -8 -97 -78 -267 -114 -280 -304 -542 -556
-763 -55 -49 -114 -101 -132 -118 -47 -43 -184 -122 -281 -162 -159 -65 -256
-83 -493 -94 -231 -10 -317 -24 -392 -66 -61 -33 -83 -65 -83 -124 0 -82 53
-132 153 -145 83 -11 388 13 526 40 398 79 796 259 1047 473 87 75 260 266
358 396 161 213 253 391 345 662 43 126 55 152 75 160 16 7 152 9 392 5 419
-6 395 0 456 -101 97 -161 146 -500 112 -779 -26 -202 -130 -587 -209 -770
-108 -249 -348 -536 -596 -715 -103 -75 -333 -192 -449 -231 -162 -53 -239
-65 -476 -73 -202 -8 -233 -11 -306 -35 -100 -32 -144 -60 -167 -109 -36 -72
3 -162 81 -188 55 -19 363 -16 482 5 119 21 564 146 685 192 121 47 230 106
383 208 170 113 267 192 392 322 154 160 276 348 426 659 221 454 270 846 183
1444 -16 109 -17 137 -7 147 10 9 219 10 933 3 506 -5 1051 -14 1210 -19 160
-6 540 -10 845 -10 305 0 565 -3 577 -6 12 -3 24 -12 27 -19 7 -20 -59 -206
-114 -318 -126 -259 -317 -496 -551 -683 -41 -32 -78 -64 -84 -70 -39 -43
-253 -156 -375 -197 -112 -38 -261 -65 -395 -72 -233 -12 -375 -38 -442 -82
-82 -54 -67 -192 27 -240 55 -28 93 -29 315 -3 281 32 496 81 733 166 414 149
659 334 944 711 143 191 277 438 351 648 19 55 38 107 42 116 14 37 46 40 464
38 477 -2 557 6 788 78 119 37 132 26 178 -155 84 -334 95 -614 35 -930 -18
-91 -164 -562 -192 -616 -29 -57 -169 -270 -224 -341 -122 -158 -307 -319
-496 -433 -229 -138 -351 -181 -603 -213 -88 -11 -185 -27 -215 -35 -82 -23
-183 -80 -203 -113 -32 -55 -16 -154 33 -194 l29 -25 -81 -93 c-164 -192 -293
-377 -276 -395 15 -15 214 85 266 134 30 28 31 28 35 8 3 -12 31 -138 63 -281
32 -143 61 -264 64 -268 10 -12 182 -62 315 -92 378 -85 853 -98 1218 -35 l64
12 7 141 c18 385 84 604 229 763 148 162 346 242 687 279 256 27 309 35 378
57 99 30 141 54 203 119 65 66 99 141 99 219 0 73 -5 80 -60 80 -39 0 -71 12
-171 62 -180 90 -225 87 -374 -26 -109 -83 -254 -141 -410 -166 -86 -14 -273
-14 -420 -1 -196 18 -318 -14 -385 -100 -39 -49 -50 -80 -50 -145 0 -48 -2
-55 -17 -50 -35 9 -209 46 -257 53 l-50 8 129 74 c233 134 448 318 587 501
150 199 342 541 432 771 118 300 146 501 127 903 -8 190 -11 211 -30 229 -19
19 -24 20 -70 8 -56 -14 -87 -8 -95 17 -5 16 -56 263 -56 271 0 2 48 -43 108
-100 266 -257 518 -436 824 -584 307 -149 554 -188 788 -124 80 21 124 42 526
249 61 31 163 75 227 98 116 41 359 105 449 118 l48 6 -41 -98 c-111 -268
-224 -438 -424 -640 -145 -145 -230 -211 -400 -309 -252 -145 -391 -182 -735
-194 -213 -8 -268 -18 -352 -68 -102 -60 -96 -198 9 -245 43 -19 61 -20 237
-15 392 10 799 124 1138 318 331 190 626 493 815 839 52 93 153 323 182 411
l21 65 228 28 c367 44 641 96 723 137 81 40 92 66 193 449 69 262 82 300 116
343 38 48 107 73 460 162 190 48 372 100 405 115 78 35 122 83 184 199 64 118
83 143 197 261 116 121 138 162 138 255 0 96 -27 145 -160 286 -168 180 -189
220 -254 482 -22 89 -56 195 -75 235 -57 121 -177 229 -329 296 -207 92 -717
213 -1061 253 -239 28 -360 1 -513 -114 -117 -88 -160 -107 -229 -100 -65 7
-110 33 -223 128 -93 78 -186 129 -240 130 -20 0 79 30 230 70 146 38 373 101
505 138 132 38 312 88 400 110 202 52 205 55 205 179 0 48 -4 93 -8 100 -19
28 -134 50 -337 62 -88 5 -434 39 -770 74 -335 36 -689 70 -785 76 -96 6 -355
31 -575 55 -418 46 -736 77 -990 95 -82 6 -370 35 -640 65 -269 30 -654 68
-855 85 -201 17 -547 51 -770 75 -223 24 -531 54 -685 65 -253 18 -391 33
-975 99 -96 11 -267 27 -380 36 -265 20 -344 27 -830 80 -393 43 -604 63 -895
85 -226 17 -719 72 -729 81 -6 5 1 9 16 9 14 0 57 16 96 35 80 40 138 98 228
228 153 217 330 343 547 388 49 10 91 20 94 22 2 3 -15 8 -39 12 -68 11 -365
72 -453 93 l-80 19 290 -4 c1401 -17 1968 -26 2195 -32 146 -5 266 -7 268 -6
3 3 -390 607 -800 1230 -854 1296 -1564 2315 -1960 2813 l-106 132 -130 -222z
m8348 -6473 c-237 -131 -392 -175 -622 -176 -76 0 -143 3 -150 7 -7 4 31 20
88 36 129 37 784 206 804 207 8 1 -46 -33 -120 -74z m-1544 -301 l52 -7 -41
-63 c-22 -35 -48 -66 -56 -68 -9 -3 -153 -39 -321 -80 -321 -79 -628 -164
-770 -215 -94 -33 -105 -31 -116 25 -11 55 11 67 261 144 307 95 545 174 685
226 121 45 181 53 306 38z"/>
<path d="M9051 13110 c-158 -22 -302 -87 -405 -181 -77 -71 -111 -122 -167
-252 -48 -113 -109 -189 -167 -208 -53 -18 -139 -14 -272 11 -150 28 -361 37
-482 20 -170 -23 -286 -69 -370 -148 -71 -66 -92 -111 -93 -197 0 -112 39
-165 246 -331 224 -179 336 -323 614 -784 226 -375 319 -507 463 -653 139
-142 249 -199 387 -200 112 -2 175 21 241 88 81 80 94 133 104 420 7 193 11
239 28 288 70 194 197 329 390 411 121 52 164 76 200 110 79 73 90 156 46 329
-38 148 -32 208 40 418 53 156 56 171 56 260 0 71 -6 110 -23 160 -69 204
-249 361 -481 419 -91 23 -263 33 -355 20z"/>
<path d="M19245 6099 c-413 -38 -899 -180 -1043 -305 -24 -20 -68 -75 -98
-121 -96 -148 -110 -151 -492 -89 -411 67 -600 87 -878 93 -431 10 -667 -37
-811 -161 -113 -98 -136 -300 -46 -405 72 -85 163 -109 458 -121 245 -10 324
-24 596 -107 458 -139 577 -163 799 -163 220 0 405 35 837 159 540 155 615
164 1203 155 448 -7 577 -1 865 41 272 40 579 117 824 207 l116 42 -80 13
c-91 15 -180 55 -243 108 -23 21 -74 81 -112 135 -82 115 -125 155 -229 208
-317 165 -727 278 -1124 311 -146 12 -409 12 -542 0z"/>
</g>
</svg>
